<?xml version="1.0" encoding="UTF-8"?>
<svg width="200px" height="200px" viewBox="0 0 200 200" version="1.1" xmlns="http://www.w3.org/2000/svg">
    <g stroke="none" stroke-width="1" fill="none" fill-rule="evenodd">
        <g transform="translate(25, 25)" fill-rule="nonzero">
            <!-- Map background -->
            <rect fill="#F2F7FA" x="0" y="0" width="150" height="150" rx="8"></rect>
            
            <!-- Map elements -->
            <path d="M20,30 C60,10 90,50 130,30" stroke="#E6EEF4" stroke-width="4" stroke-linecap="round"></path>
            <path d="M20,60 C50,40 100,80 130,60" stroke="#E6EEF4" stroke-width="4" stroke-linecap="round"></path>
            <path d="M20,90 C70,70 80,110 130,90" stroke="#E6EEF4" stroke-width="4" stroke-linecap="round"></path>
            <path d="M20,120 C40,100 110,130 130,120" stroke="#E6EEF4" stroke-width="4" stroke-linecap="round"></path>
            
            <!-- Empty pin icon -->
            <circle cx="75" cy="65" r="30" fill="#FFFFFF" stroke="#3498DB" stroke-width="2"></circle>
            <path d="M75,45 C67,45 60,52 60,60 C60,72 75,85 75,85 C75,85 90,72 90,60 C90,52 83,45 75,45 Z" fill="#3498DB"></path>
            <circle cx="75" cy="60" r="5" fill="#FFFFFF"></circle>
            
            <!-- Plus icon -->
            <circle cx="110" cy="100" r="20" fill="#FFFFFF" stroke="#8E44AD" stroke-width="2"></circle>
            <line x1="100" y1="100" x2="120" y2="100" stroke="#8E44AD" stroke-width="2" stroke-linecap="round"></line>
            <line x1="110" y1="90" x2="110" y2="110" stroke="#8E44AD" stroke-width="2" stroke-linecap="round"></line>
        </g>
    </g>
</svg>